<?xml version="1.0"?>
<svg width="150" height="150" viewBox="0 0 100 100" xmlns="http://www.w3.org/2000/svg" xmlns:svg="http://www.w3.org/2000/svg">
 <g>
  <title>Fill</title>
  <path fill="#e9bb40" id="fill" d="m11.793944,39.53516l57.973634,-28.856449c0,0 19.150391,9.634768 19.387695,9.397463c0.237305,-0.237305 1.423828,39.392576 1.257813,39.249998c-0.166016,-0.142578 -59.87207,30.042969 -60.038086,29.900391c-0.166016,-0.142578 -21.191407,-10.536133 -21.357422,-10.678711c-0.166015,-0.142578 2.776366,-39.012691 2.776366,-39.012691z"/>
 </g>
 <g>
  <title>Outline</title>
  <path fill="#E95F40" id="Outline" d="m91.117996,17.764l-20,-10c-0.703987,-0.353 -1.531998,-0.353 -2.235985,0l-60.000002,30c-0.846999,0.424 -1.381999,1.289001 -1.381999,2.236l0,40c0,0.946999 0.535,1.813004 1.381999,2.236l20,10c0.352001,0.176003 0.735001,0.264 1.118,0.264s0.766001,-0.087997 1.118,-0.264l60.000002,-30c0.847,-0.423 1.381996,-1.289001 1.381996,-2.236l0,-40c0,-0.947001 -0.534996,-1.812 -1.381996,-2.236l-0.000015,0zm-3.617996,22.089001l-6.25,3.125l0,-7.205002l6.25,-3.125l0,7.205002zm-75,12.793999l16.25,8.125l0,7.204998l-16.25,-8.123997l0,-7.206001zm18.75,15.329998l0,-7.204998l7.5,-3.75l0,7.204998l-7.5,3.75zm18.191002,-9.094997l-8.191002,4.095001l0,-7.205002l17.5,-8.75l0,7.205002l-9.308998,4.654999zm20,-10l-8.191002,4.095001l0,-7.205002l17.5,-8.75l0,7.205002l-9.308998,4.654999zm10,-15l-8.191002,4.095001l0,-7.205002l16.25,-8.125l0,7.205l-8.058998,4.030001zm-10.691002,-1.859001l0,7.205002l-9.308998,4.654999l-8.191002,4.095001l0,-7.205002l17.5,-8.75zm-20,10l0,7.205002l-9.308998,4.654999l-8.191002,4.095001l0,-7.205002l17.5,-8.75zm-20,8.75l0,7.205002l-7.5,-3.75l0,-7.205002l7.5,3.75zm-10,2.204002l-6.25,-3.125l0,-7.205002l6.25,3.125l0,7.205002zm-6.25,16.874996l0,-7.204998l6.25,3.125004l0,7.204987l-6.25,-3.125l0,0.000008zm8.75,-2.828987l7.5,3.75l0,7.204987l-7.5,-3.75l0,-7.204987zm18.191002,6.859001l-8.191002,4.094986l0,-7.204987l17.5,-8.75l0,7.205002l-9.308998,4.655006l0,-0.000008zm20,-10l-8.191002,4.095001l0,-7.205002l17.5,-8.75l0,7.204998l-9.308998,4.655003zm11.808998,-5.905003l0,-7.204998l9.306999,-4.653999c0.000999,0 0.000999,0 0.001999,-0.001003l6.941002,-3.469997l0,7.204998l-8.058998,4.030003l-8.191002,4.094997zm-1.25,-45.181999l15.807999,7.904001l-55.807999,27.903997l-15.808,-7.903999l55.808,-27.903999zm-57.5,65.66l0,-5.807999l16.25,8.125l0,5.807999l-16.25,-8.125zm18.75,8.125l0,-5.807999l7.5,-3.75l0,5.807999l-7.5,3.75zm10,-5l0,-5.807999l17.5,-8.75l0,5.807999l-17.5,8.75zm20,-10l0,-5.807999l17.5,-8.75l0,5.807999l-17.5,8.75zm20,-15.807999l6.25,-3.125l0,5.807999l-6.25,3.125l0,-5.807999z"/>
 </g>
</svg>
